<?xml version="1.0" encoding="utf-8"?>
<!-- Generator: Adobe Illustrator 16.0.0, SVG Export Plug-In . SVG Version: 6.00 Build 0)  -->
<!DOCTYPE svg PUBLIC "-//W3C//DTD SVG 1.1//EN" "http://www.w3.org/Graphics/SVG/1.1/DTD/svg11.dtd">
<svg version="1.1" id="Layer_1" xmlns="http://www.w3.org/2000/svg" xmlns:xlink="http://www.w3.org/1999/xlink" x="0px" y="0px"
	 width="3000px" height="3000px" viewBox="0 0 3000 3000" enable-background="new 0 0 3000 3000" xml:space="preserve">
<rect x="-68.325" y="-68.325" fill-rule="evenodd" clip-rule="evenodd" width="3125.375" height="3167.367"/>
<path d="M-3617.106,1128.649h-4.416C-3619.696,1128.844-3618.252,1128.828-3617.106,1128.649z"/>
<path d="M-4193.302,2542.329c-0.497,2.156-0.495,3.563-0.144,4.459C-4193.06,2545.851-4192.972,2544.428-4193.302,2542.329z"/>
<path d="M-4119.683,1321.221c-0.241,2.451-0.483,4.901-0.761,7.724h-14.897c0.005,0.63,0.009,1.258,0.014,1.887h18.077
	c-0.226-4.439-0.356-6.992-0.486-9.531C-4118.385,1321.274-4119.034,1321.247-4119.683,1321.221z"/>
<path d="M-4532.873,2878.022c0.491-0.884,0.458-2.138,0.684-3.209C-4532.679,2876.109-4532.883,2877.158-4532.873,2878.022z"/>
<path d="M-4168.124,2638.153c-0.129,1.198-0.26,2.397-0.387,3.596c0.009-0.001,0.017-0.001,0.026-0.002
	C-4168.062,2640.225-4167.963,2639.055-4168.124,2638.153z"/>
<path d="M-4358.809,2570.88v-3.423C-4358.94,2568.403-4358.951,2569.53-4358.809,2570.88z"/>
<path d="M-4280.45,1355.958h3.241C-4278.492,1355.776-4279.547,1355.798-4280.45,1355.958z"/>
<path fill-rule="evenodd" clip-rule="evenodd" fill="none" d="M-1930.433,2004.669c8.297,0.562,21.927-1.473,22.071,12.511
	c0.153,14.896-13.805,13.204-24.273,13.362c-17.746,0.268-20.034-1.71-19.026-15.165
	C-1950.898,2005.19-1949.783,2004.578-1930.433,2004.669z"/>
<text transform="matrix(1 0 0 1 329.4346 1724.873)" fill="#00AEEF" font-family="'BaronNeue'" font-size="665.871">DxSale</text>
<text transform="matrix(1 0 0 1 487.042 1868.6113)" fill="#FFFFFF" font-family="'NexaBold'" font-size="75.053" letter-spacing="22">TOKEN SALES WITH PEACE OF MIND</text>
</svg>
