<?xml version="1.0" encoding="utf-8"?>
<!-- Generator: Adobe Illustrator 23.0.1, SVG Export Plug-In . SVG Version: 6.00 Build 0)  -->
<svg version="1.1" id="Layer_1" xmlns="http://www.w3.org/2000/svg" xmlns:xlink="http://www.w3.org/1999/xlink" x="0px" y="0px"
	 viewBox="0 0 301 80" style="enable-background:new 0 0 301 80;" xml:space="preserve">
<style type="text/css">
	.st0{fill-rule:evenodd;clip-rule:evenodd;fill:#FF007A;}
	.st1{fill-rule:evenodd;clip-rule:evenodd;fill:#FFFFFF;}
	.st2{fill-rule:evenodd;clip-rule:evenodd;}
	.st3{fill-rule:evenodd;clip-rule:evenodd;fill:#606063;}
	.st4{fill:#BEBEBE;}
	.st5{fill:#FAF9FA;}
	.st6{fill-rule:evenodd;clip-rule:evenodd;fill:#633001;}
	.st7{fill:#FEDC90;}
	.st8{fill:#D1884F;}
	.st9{fill-rule:evenodd;clip-rule:evenodd;fill:url(#SVGID_1_);}
	.st10{fill:#9E7200;}
	.st11{fill:#F0B90B;}
	.st12{fill:#FFFFFF;}
	.st13{font-family:'GeomatikBold';}
	.st14{font-size:34.8886px;}
</style>
<path class="st0" d="M24.4-66.2c-0.1,0.4-0.3,0.8-0.6,1.2c-0.5,0.6-1.2,1.1-1.9,1.5c-0.7,0.3-1.4,0.5-2.1,0.6c-0.2,0-0.3,0-0.5,0
	l0,0c-0.5,0-0.9,0.2-1.3,0.5c-0.4,0.3-0.6,0.7-0.7,1.1c-0.1,0.2-0.1,0.4-0.1,0.7c0,0.3-0.1,0.7-0.1,1.1c0,0.3,0,0.6-0.1,0.9
	c-0.2,1.3-0.5,2.5-1.1,3.6c-0.1,0.2-0.2,0.5-0.3,0.7c-0.6,1.2-1.2,2.3-1,3.8c0.1,1.1,0.7,1.9,1.5,2.7c0.4,0.4,0.9,0.7,1.4,1
	c1.4,0.9,3,2,2.5,4.6c-0.4,2.1-3.9,4.3-8.8,5.1c0.5-0.1-0.6-1.9-0.7-2.1l0,0l0,0c-0.1-0.2-0.3-0.4-0.4-0.6c-0.4-0.6-0.8-1.2-1.1-1.9
	c-0.8-1.7-1.2-3.8-0.9-5.7c0.3-1.7,1.4-3.1,2.5-4.4l0,0c0.2-0.2,0.4-0.4,0.5-0.6c1.5-1.8,3-4.2,3.3-6.6c0-0.2,0.1-0.4,0.1-0.7
	c0-0.4,0.1-0.9,0.2-1.3c0.1-0.8,0.4-1.6,0.7-2.3c0.2-0.5,0.6-0.9,1-1.3c0.2-0.2,0.3-0.4,0.4-0.7c0-0.3,0-0.6-0.1-0.8L8.8-80.3
	l11.3,14c0.1,0.2,0.3,0.3,0.5,0.4c0.2,0.1,0.4,0.1,0.6,0.1c0.2,0,0.4,0,0.6-0.1c0.2-0.1,0.4-0.2,0.5-0.4c0.1-0.2,0.2-0.4,0.2-0.6
	c0-0.2-0.1-0.4-0.2-0.6c-0.5-0.7-1.1-1.4-1.6-2c-0.2-0.3-0.4-0.5-0.7-0.8l-2.8-3.5l-5.7-7L0-95l12.1,13.4l6.1,6.7l3,3.4
	c0.3,0.3,0.6,0.6,0.8,0.9c0.7,0.8,1.4,1.6,2.2,2.5l0.2,0.2l0,0.3C24.5-67.1,24.5-66.7,24.4-66.2z M53.3-61.5L53.3-61.5L53.3-61.5
	c0-1.5-0.9-4-2.8-6.3l0-0.1c-0.6-0.7-1.2-1.4-1.9-2c-0.1-0.1-0.3-0.2-0.4-0.4c-0.9-0.8-1.8-1.4-2.8-2l-0.1,0
	c-3.2-1.7-7.3-2.6-12.4-1.6c-0.7-0.8-1.4-1.6-2.2-2.4c-1.2-1.1-2.6-2.1-4.2-2.7c-1.5-0.6-3.2-0.8-4.8-0.6c1.6,0.1,3.1,0.6,4.5,1.3
	c1.4,0.7,2.6,1.7,3.6,2.8c1,1.2,2,2.4,2.9,3.7c0.1,0.1,0.2,0.2,0.2,0.3l0,0c0.9,1.2,1.8,2.4,2.9,3.4c0.6,0.6,1.3,1.1,2.1,1.5
	c0.2,0.1,0.4,0.2,0.6,0.3c0.2,0.1,0.4,0.2,0.6,0.2c0.4,0.2,0.8,0.3,1.2,0.4c1.6,0.5,3.2,0.6,4.8,0.7c0.2,0,0.4,0,0.7,0
	c0.6,0,1.1,0.1,1.7,0.1c0.8,0,1.5,0.2,2.3,0.4c1.1,0.3,2.1,1,2.8,1.9C52.9-62.2,53.1-61.9,53.3-61.5z M28.8-61.3
	c1.3,2.3-1.6,3-3,3.1c-2.1,0.2-2.5-1-2.1-2.5c0.1-0.5,0.4-1,0.8-1.4c0.4-0.4,0.9-0.6,1.5-0.6c0.5,0,1.1,0.1,1.6,0.3
	C28.1-62.2,28.5-61.8,28.8-61.3z M46.7-55.1c-5.2-2.1-10.5-4.3-9.7-10.5c1.7,1.8,4.4,2.2,7.4,2.7c2.7,0.4,5.5,0.8,8,2.3
	c5.9,3.7,5,10.8,3,13.4C55.5-51.5,51.2-53.3,46.7-55.1z M48.6-69.9c-0.1-0.1-0.2-0.1-0.2-0.2l0,0l-0.1-0.1c0,0-0.1-0.1-0.1-0.1
	l0.1,0l0.1,0.1l0,0l0.1,0.1C48.5-70.1,48.5-70,48.6-69.9z M25.5-76.3c-0.9-1-2.2-1.5-3.5-1.7c0,0.3-0.1,0.7-0.1,1
	c-0.1,2.7,0.9,5.7,2.7,7.7c0.6,0.7,1.3,1.2,2.1,1.6c0.5,0.2,1.7,0.8,2.1,0.3c0,0,0.1-0.1,0.1-0.2c0-0.1,0-0.1,0-0.2
	c-0.1-0.2-0.2-0.4-0.4-0.6c-0.1-0.1-0.2-0.3-0.3-0.4c-0.1-0.1-0.2-0.3-0.2-0.4c-0.2-0.3-0.3-0.5-0.4-0.8c-0.3-0.7-0.5-1.5-0.6-2.3
	c0-0.2-0.1-0.3-0.1-0.5C26.7-74.1,26.4-75.3,25.5-76.3z M43.7-54.8c-1.3,3.7,0.8,6.8,2.9,10c2.4,3.5,4.7,7,2.2,11.2
	c4.9-2,7.2-8.2,5.2-13c-1.3-3.1-4.4-4.7-7.2-6.3C45.7-53.5,44.7-54.1,43.7-54.8z M29.4-45.9c-0.9,0.4-1.7,0.8-2.5,1.4
	c1.7-0.6,3.6-1,5.4-1.1c0.3,0,0.7,0,1-0.1l0,0c0.6,0,1.2-0.1,1.8-0.1c1-0.1,2-0.3,2.9-0.6c1-0.3,1.9-0.9,2.6-1.7
	c0.8-0.8,1.3-1.7,1.5-2.8c0.2-1,0.2-2-0.1-3c-0.3-1-0.8-1.9-1.5-2.6c0.3,0.9,0.5,1.8,0.6,2.7c0.1,0.9-0.1,1.7-0.3,2.5
	c-0.3,0.8-0.7,1.5-1.3,2c-0.6,0.6-1.3,1-2.1,1.3c-1.1,0.4-2.3,0.6-3.6,0.8h0c-0.6,0.1-1.2,0.2-1.8,0.3
	C31.2-46.5,30.3-46.3,29.4-45.9z M44.7-30.5L44.7-30.5L44.7-30.5L44.7-30.5c-0.2,0.2-0.5,0.4-0.7,0.5c-0.3,0.2-0.6,0.4-1,0.5
	c-0.7,0.3-1.5,0.5-2.3,0.5c-2.1,0-3.6-1.6-4.5-3.4c-0.2-0.5-0.4-1-0.6-1.4l0,0c-0.3-0.8-0.7-1.6-1.1-2.3c-1-1.7-2.8-3-4.8-2.8
	c-0.8,0.1-1.6,0.5-2.1,1.2c-1.2,1.9,0.5,4.6,2.8,4.2c0.2,0,0.4-0.1,0.6-0.2c0.2-0.1,0.3-0.2,0.5-0.3c0.3-0.3,0.5-0.6,0.7-1
	c0.1-0.4,0.2-0.8,0.1-1.3c-0.1-0.4-0.3-0.8-0.7-1.1c0.4,0.2,0.8,0.6,0.9,1c0.2,0.5,0.2,1,0.1,1.4c-0.1,0.5-0.3,1-0.6,1.4
	c-0.2,0.2-0.4,0.4-0.6,0.5c-0.2,0.1-0.5,0.3-0.7,0.3c-0.5,0.2-1,0.2-1.6,0.2c-0.7-0.1-1.4-0.4-2-0.9c-0.1-0.1-0.2-0.2-0.3-0.3
	c-0.4-0.3-0.8-0.7-1.1-1.2c-0.1-0.2-0.3-0.3-0.4-0.5c-0.7-0.8-1.6-1.4-2.5-1.8c-0.6-0.3-1.3-0.5-2-0.6c-0.3-0.1-0.7-0.1-1-0.2
	c0,0,0,0-0.1,0c0,0,0,0-0.1,0l-0.1,0c-0.3-0.1-0.8-0.1-0.9-0.1c1.1-1,2.3-1.9,3.5-2.7c1.3-0.8,2.7-1.4,4.1-1.8
	c1.5-0.4,3.1-0.5,4.6-0.4c0.8,0.1,1.6,0.3,2.3,0.6c0.8,0.3,1.5,0.8,2.1,1.3c0.6,0.6,1.1,1.3,1.5,2.1c0.3,0.7,0.6,1.5,0.7,2.3
	c0.1,0.4,0.1,0.9,0.2,1.4c0.3,2.2,0.6,4.7,3.1,5.1c0.2,0,0.3,0.1,0.5,0.1l0.5,0c0.3,0,0.7-0.1,1-0.1c0.7-0.2,1.4-0.4,2-0.7
	C44.8-30.6,44.7-30.6,44.7-30.5z M25.7-34.6c0.1,0.1,0.2,0.2,0.2,0.3c0,0-0.1-0.1-0.1-0.1l0,0l0,0C25.8-34.5,25.7-34.5,25.7-34.6z"
	/>
<g>
	<path class="st1" d="M174-77.9c-5.3,1.3-7.7,5.5-6.2,10.4c0.6,2.1,2.6,4.3,5.4,5.9c5,2.9,6.5,4.1,7.4,5.8c0.7,1.5,0.8,2,0.4,3.3
		c-0.8,3.1-3.1,4.9-6.2,4.9c-3.2,0-5.5-1.8-6-4.8c-0.2-1.2-0.5-1.6-1-1.6c-0.7,0-0.8,0.3-0.8,3.4v3.4l2.1,0.7c3.3,1.1,8,1,10.8-0.3
		c5.4-2.5,7.5-7.5,5.1-12.2c-0.9-1.7-3.2-3.7-7.1-6.1c-4.1-2.5-6-4.3-6.2-6.1c-0.4-2.8,2.1-5.2,5.6-5.2c2.7,0,3.9,0.7,4.9,2.7
		c0.6,1.3,1,1.7,1.8,1.7c0.8,0,0.9-0.1,0.7-0.9c-0.1-0.5-0.2-1.7-0.2-2.8c0-1.3-0.2-1.9-0.6-2.1C182.3-78.1,175.5-78.3,174-77.9z"/>
	<path class="st1" d="M68.2-76.7c0,0.6,0.3,0.8,1,0.8c1.9,0,2,0.6,2.3,12.1c0.2,10.1,0.3,10.9,1.1,12.4c1.2,2.1,2.7,3.6,5.2,4.7
		c1.7,0.8,2.7,0.9,6,0.9c3.6,0,4.2-0.1,6.3-1.1c1.3-0.6,2.8-1.8,3.5-2.6c2.3-2.8,2.5-4.1,2.8-15.4c0.3-10.9,0.3-11.1,2.1-11.1
		c0.4,0,0.7-0.3,0.7-0.8c0-0.8-0.3-0.8-4.8-0.8c-4.5,0-4.8,0.1-4.8,0.8c0,0.6,0.3,0.8,1.3,0.9c2.1,0.2,2.3,1,2.3,10.9
		c0,10.1-0.3,12-2.5,14c-2,1.9-3.6,2.5-6.3,2.5c-3.9,0-6.7-1.8-7.6-5c-0.3-1.1-0.4-5-0.3-11.8l0.1-10.2l1.4-0.5
		c0.8-0.2,1.5-0.7,1.5-1.1c0.1-0.6-0.5-0.6-5.5-0.6C68.5-77.5,68.2-77.5,68.2-76.7z"/>
	<path class="st1" d="M105.5-76.7c0,0.6,0.3,0.8,1.2,0.8c2,0,3.2,0.8,3.7,2.5c0.3,1,0.4,5.6,0.3,12.2c-0.1,11.8-0.3,12.6-2.7,13.1
		c-0.8,0.2-1.2,0.5-1.2,1c0,0.7,0.4,0.7,5.6,0.7c5.1,0,5.6-0.1,5.6-0.7c0-0.5-0.5-0.9-1.8-1.2c-1.6-0.4-1.8-0.6-2.2-2
		c-0.5-1.7-0.6-19.7-0.1-19.7c0.2,0,1.7,1.7,3.5,3.7c1.7,2,6.5,7.3,10.6,11.8c6.4,7,7.6,8.1,8.6,8.1h1.2l0.1-14.2
		c0.1-10.1,0.3-14.3,0.6-14.6c0.3-0.3,1.1-0.6,1.8-0.7c0.8-0.2,1.3-0.5,1.3-0.9c0-0.5-1-0.6-5.5-0.7c-5.3-0.1-5.5-0.1-5.5,0.7
		c0,0.6,0.3,0.8,1,0.8c0.5,0,1.5,0.4,2.1,1l1.1,1l0.1,9.6c0.1,5.4,0,9.6-0.2,9.6c-0.2,0-1.4-1.2-2.7-2.7c-1.3-1.5-5-5.6-8.2-9.1
		c-3.2-3.5-6.8-7.4-7.8-8.7l-2-2.3l-4.1,0C105.8-77.5,105.5-77.5,105.5-76.7z"/>
	<path class="st1" d="M147.6-76.7c0,0.6,0.3,0.8,1.1,0.8c0.6,0,1.5,0.3,1.9,0.6c0.7,0.5,0.8,1.2,0.9,12.3c0.1,13.8,0,14.6-2.3,15
		c-1.2,0.2-1.6,0.4-1.6,1c0,0.7,0.4,0.7,6,0.7c5.7,0,6,0,6-0.8c0-0.6-0.3-0.8-0.9-0.8c-0.5,0-1.3-0.3-1.7-0.6
		c-0.7-0.5-0.8-1.2-0.9-13.2c-0.1-12.2-0.1-12.6,0.7-13.4c0.4-0.4,1.3-0.8,1.8-0.8c0.7,0,1-0.2,1-0.8c0-0.8-0.3-0.8-6-0.8
		S147.6-77.5,147.6-76.7z"/>
	<path class="st1" d="M189.6-76.7c0.1,0.5,0.5,0.8,1.1,0.8c0.5,0,1.3,0.4,1.8,0.9c0.5,0.5,3.2,7.1,6.2,14.9l5.3,14l1.4,0.1l1.4,0.1
		l3.7-9.9c2.1-5.5,4-10.3,4.2-10.9c0.5-0.9,0.6-0.8,1.8,2.4c0.7,1.8,2.6,6.7,4.2,10.8l2.9,7.5h1.3c0.7,0,1.4-0.2,1.5-0.5
		c0.1-0.3,2-5,4.1-10.5c2.1-5.5,4.5-11.5,5.3-13.5c1.7-4.4,2.1-5,3.4-5.4c0.6-0.2,1.1-0.7,1.1-1c0-0.5-0.7-0.6-4.8-0.6
		c-4.5,0-4.8,0-4.8,0.8c0,0.6,0.3,0.8,1,0.8c1.6,0,2.2,0.4,2.2,1.4c0,0.8-7.6,21.5-8.1,22c-0.3,0.3-7.2-19-7.4-20.8
		c-0.2-1.7,0.5-2.6,2.2-2.6c0.7,0,0.9-0.2,0.9-0.8c0-0.8-0.3-0.8-6.2-0.8c-5.9,0-6.2,0-6.2,0.8c0,0.5,0.3,0.8,0.6,0.8
		c1.3,0,2.9,1.2,3.3,2.4c0.6,1.8,0.1,3.5-3.5,13.1l-3.1,8.2l-0.7-1.6c-0.4-0.9-2.3-5.9-4.2-11.2c-3.8-10.5-3.9-10.9-1.4-10.9
		c0.9,0,1.2-0.2,1.2-0.8c0-0.8-0.3-0.8-6-0.8C189.6-77.5,189.4-77.5,189.6-76.7z"/>
	<path class="st1" d="M270.9-76.5c0,0,0,0.5,0.1,0.7c0.1,0.2,0.5,0.2,0.5,0.2c0.1,0,0.2,0.1,0.3,0.1l0.1,0l0.1,0l0.2,0
		c1.2,0.3,2.1,0.5,2.4,1.3c0.2,0.5,0.2,2.4,0.2,12.4c0,10.6,0,11.9-0.3,12.6c-0.4,0.9-1,1.3-2.6,1.8c0,0-0.7,0.2-0.9,0.4
		c-0.2,0.2-0.2,0.6-0.2,0.6s0,0.4,0.1,0.5c0.2,0.2,0.6,0.1,0.6,0.1l4,0l6.7,0.1c0,0,0.3,0,0.4-0.1c0.1-0.2,0.1-0.5,0.1-0.5
		s0-0.4-0.2-0.5c-0.2-0.2-0.9-0.3-0.9-0.3c-1.5-0.4-2.3-0.9-2.6-1.6c-0.3-0.6-0.3-2.2-0.3-5.4v-4.8c0,0,0.1,0,0.1,0c0,0,0,0,0.1,0
		l0,0c0.1,0,0.1,0.1,0.2,0.1c0,0,0.1,0.1,0.1,0.1l0,0l0,0l0,0c0.8,0.5,1.7,1.2,5.3,1.3c4.3,0.1,7-1.8,8.5-4.1c1.6-2.2,2.2-5.8,1-9.5
		c-1.1-3.8-4.5-6-9.2-6.3c-2.5-0.1-6,0-8,0.1h0c-0.2,0-0.4,0-0.6,0c-1.8,0.1-4,0.3-5.1,0.4l0,0c-0.3,0-0.3,0-0.4,0.1
		C270.8-76.7,270.9-76.5,270.9-76.5z"/>
	<path class="st2" d="M288.5-61.7c1.7-1.6,1.8-4.2,1.8-5.9c-0.2-2.6-1.2-7.5-7.1-7.5c-1.4-0.1-4.2,0.2-4.3,2.1
		c-0.1,0.3-0.1,2.7-0.1,6.3l0,5.8l0.6,0.3l0,0c0.3,0.2,0.7,0.4,1.5,0.5C283.3-59.6,286.8-60.1,288.5-61.7z"/>
	<path class="st1" d="M251.7-77c0.2-0.1,0.3-0.1,0.4-0.2l0.2-0.1l0.1,0c0,0,0.7-0.3,0.9,0c0.1,0.1,0.3,0.7,0.9,2.2l0,0.1
		c0.1,0.3,0.2,0.6,0.4,0.9c0.9,2.2,2.1,5.5,2.8,7.2l0.7,1.9l1.4,3.6l0.8,2c0.9,2.4,2.1,5.5,2.7,6.9c0.5,1.4,1.2,2.8,1.4,3
		c0.1,0.1,0.2,0.3,0.3,0.5l0,0l0,0l0,0v0c0.4,0.7,1,1.6,2.1,1.8c0,0,0.9,0.1,1,0.3c0.1,0.1,0.2,0.4,0.2,0.4v0.5c0,0,0,0.1-0.1,0.2
		c-0.1,0.1-0.3,0.1-0.3,0.1l-6.7,0l-4.7,0c0,0-0.2,0-0.3-0.1c-0.1-0.1-0.1-0.3-0.1-0.3v-0.3c0,0,0-0.3,0.1-0.5c0.2-0.2,1-0.3,1-0.3
		c1.4-0.1,2-1.3,2.3-2c0,0,0-0.1,0.1-0.1c0.3-0.7,0.2-1.1-1.2-4.6c-0.9-2.3-1.3-2.9-1.5-3c-0.2,0-2.6-0.1-5.5,0l-5.2,0l-0.3,0.9
		c-0.9,2.5-1.7,5-1.8,5.6c-0.2,1.4,0.1,2.9,2.1,3.1c0,0,0.7,0.1,0.9,0.3c0.2,0.1,0.3,0.5,0.3,0.5v0.4c0,0,0,0.2-0.2,0.3
		c-0.1,0.1-0.5,0.1-0.5,0.1h-5l-4.8,0.1c0,0-0.2,0-0.4-0.1c-0.2-0.1-0.2-0.2-0.2-0.2v-0.3c0,0,0-0.2,0.2-0.5c0.3-0.3,1-0.3,1-0.3
		c1.3-0.2,2.1-1.6,2.5-2.4c0-0.1,0.1-0.1,0.1-0.2c0.2-0.3,0.9-2.2,1.7-4.1c0.8-1.9,1.6-4.1,1.9-4.8c1-2.4,1.9-4.7,3.3-8.2
		c0.8-1.9,1.9-4.8,2.5-6.3l1.1-2.8L251.7-77z"/>
	<path class="st2" d="M251.3-70.2c0.2,0.6,0.6,1.5,0.8,2s0.8,2,1.3,3.2c0.5,1.3,1.1,2.8,1.4,3.4c0.3,0.6,0.5,1.1,0.5,1.2
		c0,0-1.9,0.1-4.3,0.1c-2.7,0-4.3-0.1-4.3-0.1c0-0.1,0.1-0.4,0.2-0.7c0.2-0.5,1.1-3,3-8.6c0.3-0.9,0.6-1.6,0.6-1.7
		C250.7-71.5,250.9-71.3,251.3-70.2z"/>
</g>
<g>
	<path class="st3" d="M5.4,46.1l0,0.6c0,0.7,0.1,1.4,0.2,2.1H5.4v1.1c0,0.5,0,1,0.1,1.6c1.2,10.1,13.9,18,29.5,18s28.3-7.9,29.5-18
		c0.1-0.5,0.1-1,0.1-1.6v-1.1h-0.2c0.1-0.7,0.2-1.4,0.2-2.1c0-0.2,0-0.4,0-0.6c-0.4-10.5-13.5-19-29.6-19S5.8,35.6,5.4,46.1z
		 M2.9,46.1c0.2-6.4,4.2-11.8,9.8-15.5c5.8-3.8,13.6-6.1,22.2-6.1s16.4,2.3,22.2,6.1c5.6,3.7,9.6,9.1,9.8,15.5h0v3.7
		c0,6.7-4.1,12.3-9.8,16.1C51.3,69.7,43.5,72,34.9,72s-16.4-2.3-22.2-6.1C7,62.1,2.9,56.5,2.9,49.8L2.9,46.1L2.9,46.1L2.9,46.1z"/>
	<path class="st4" d="M64.5,49.8c0,10.8-13.2,19.5-29.6,19.5S5.4,60.6,5.4,49.8v-3.1h59.1C64.5,46.7,64.5,49.8,64.5,49.8z"/>
	<path class="st5" d="M64.5,46.7c0,10.8-13.2,19.5-29.6,19.5S5.4,57.5,5.4,46.7s13.2-19.5,29.6-19.5S64.5,35.9,64.5,46.7L64.5,46.7z
		"/>
	<path class="st6" d="M9.9,41.2L9.9,41.2c0,0.9,0.1,1.8,0.3,2.6H9.9v1.1c0,0.5,0,1,0.1,1.5c1.1,7.4,10.6,13.2,22,13.2
		s20.9-5.8,22-13.2c0.1-0.5,0.1-1,0.1-1.5v-1.1h-0.3c0.2-0.8,0.3-1.7,0.3-2.5v-0.1v0c0-8.1-9.9-14.7-22.1-14.7S9.9,33,9.9,41.2
		L9.9,41.2z M7.5,41.2L7.5,41.2v3.8c0,5.3,3.2,9.7,7.6,12.7c4.4,3,10.4,4.7,16.9,4.7s12.5-1.7,16.9-4.7c4.4-2.9,7.6-7.3,7.6-12.7
		v-3.7c0-5.3-3.2-9.7-7.6-12.7c-4.4-3-10.4-4.7-16.9-4.7s-12.5,1.7-16.9,4.7C10.7,31.5,7.5,35.8,7.5,41.2L7.5,41.2z"/>
	<path class="st7" d="M54.2,44.9c0,8.1-9.9,14.7-22.1,14.7S9.9,53.1,9.9,44.9v-3.5h44.3V44.9z"/>
	<path class="st8" d="M54.2,41.2c0,8.1-9.9,14.7-22.1,14.7S9.9,49.3,9.9,41.2s9.9-14.7,22.1-14.7S54.2,33.1,54.2,41.2z"/>
	<path class="st6" d="M16.6,33.2L16.6,33.2c0,0.9,0.1,1.8,0.3,2.6h-0.3V37c0,0.5,0,1,0.1,1.5c1.1,7.4,10.6,13.2,22,13.2
		s20.9-5.8,22-13.2c0.1-0.5,0.1-1,0.1-1.5v-1.1h-0.3c0.2-0.8,0.3-1.7,0.3-2.5v-0.1v0c0-8.1-9.9-14.7-22.1-14.7S16.6,25.1,16.6,33.2
		L16.6,33.2z M14.2,33.2L14.2,33.2V37c0,5.3,3.2,9.7,7.6,12.7c4.4,3,10.4,4.7,16.9,4.7s12.5-1.7,16.9-4.7c4.4-2.9,7.6-7.3,7.6-12.7
		v-3.7c0-5.3-3.2-9.7-7.6-12.7c-4.4-3-10.4-4.7-16.9-4.7s-12.5,1.7-16.9,4.7C17.4,23.5,14.2,27.9,14.2,33.2z"/>
	<path class="st7" d="M60.9,37c0,8.1-9.9,14.7-22.1,14.7S16.6,45.1,16.6,37v-3.5h44.3L60.9,37L60.9,37z"/>
	<path class="st8" d="M60.9,33.3C60.9,41.4,51,48,38.7,48s-22.1-6.6-22.1-14.7s9.9-14.7,22.1-14.7S60.9,25.1,60.9,33.3L60.9,33.3z"
		/>
	<path class="st6" d="M9.9,25.3L9.9,25.3c0,0.9,0.1,1.8,0.3,2.6H9.9v1.1c0,0.5,0,1,0.1,1.5c1.1,7.4,10.6,13.2,22,13.2
		S53,38,54.1,30.6c0.1-0.5,0.1-1,0.1-1.5V28h-0.3c0.2-0.8,0.3-1.7,0.3-2.5v-0.1v0c0-8.1-9.9-14.7-22.1-14.7S9.9,17.2,9.9,25.3z
		 M7.5,25.3L7.5,25.3v3.8c0,5.3,3.2,9.7,7.6,12.7c4.4,3,10.4,4.7,16.9,4.7s12.5-1.7,16.9-4.7c4.4-2.9,7.6-7.3,7.6-12.7v-3.7
		c0-5.3-3.2-9.7-7.6-12.7C44.5,9.7,38.5,8,32.1,8s-12.5,1.7-16.9,4.7C10.7,15.6,7.5,20,7.5,25.3z"/>
	<path class="st7" d="M54.2,29.1c0,8.1-9.9,14.7-22.1,14.7S9.9,37.2,9.9,29.1v-3.5h44.3V29.1z"/>
	<path class="st8" d="M54.2,25.4c0,8.1-9.9,14.7-22.1,14.7S9.9,33.5,9.9,25.4s9.9-14.7,22.1-14.7S54.2,17.2,54.2,25.4z"/>
	<g>
		
			<linearGradient id="SVGID_1_" gradientUnits="userSpaceOnUse" x1="28.4836" y1="-139.526" x2="28.4836" y2="-170.132" gradientTransform="matrix(1 0 0 -1 0 -121.871)">
			<stop  offset="0" style="stop-color:#9F4A08"/>
			<stop  offset="0.37" style="stop-color:#7D3900"/>
			<stop  offset="1" style="stop-color:#8D4104"/>
		</linearGradient>
		<path class="st9" d="M15.2,26.3c0,2.7,1.8,5.1,4.7,6.8l-2,3.7v9.4c0,1.3,0.9,2.3,2.1,2.3s2.1-1,2.1-2.3v-7.5l2.1-4
			c1.4,0.3,2.8,0.5,4.4,0.5c7.4,0,13.3-4,13.3-8.9s-6-8.9-13.3-8.9S15.2,21.3,15.2,26.3z"/>
		<path class="st6" d="M19.8,33l-0.9-0.6c-2.3-1.6-3.8-3.8-3.8-6.2c0-4.9,6-8.9,13.3-8.9s13.3,4,13.3,8.9s-6,8.9-13.3,8.9
			c-1.5,0-2.9-0.2-4.4-0.5l-2.1,4v7.5c0,1.3-0.9,2.3-2.1,2.3s-2.1-1-2.1-2.3v-9.4L19.8,33L19.8,33z M15.7,36.8v9.4
			c0,2.5,1.9,4.6,4.2,4.6s4.2-2,4.2-4.6v-6.9l1.1-2.1c1.1,0.2,2.2,0.2,3.3,0.2c4,0,7.7-1.1,10.5-3c2.8-1.8,4.9-4.7,4.9-8.3
			S41.8,19.9,39,18c-2.8-1.9-6.5-3-10.5-3s-7.7,1.1-10.5,3c-2.8,1.8-4.9,4.7-4.9,8.3c0,3.1,1.6,5.7,3.9,7.5L16,35.6
			c-0.1,0.2-0.2,0.3-0.2,0.5C15.7,36.4,15.7,36.6,15.7,36.8L15.7,36.8z"/>
	</g>
	<g>
		<path class="st10" d="M19.3,22.5c0,2.6,3,4.6,6.7,4.6s6.7-2.1,6.7-4.6s-3-4.6-6.7-4.6S19.3,20,19.3,22.5z"/>
		<path class="st10" d="M19.3,20.5h13.3v2H19.3C19.3,22.5,19.3,20.5,19.3,20.5z"/>
	</g>
	<path class="st11" d="M19.3,20.5c0,2.6,3,4.6,6.7,4.6s6.7-2.1,6.7-4.6s-3-4.6-6.7-4.6S19.3,18,19.3,20.5z"/>
	<path class="st10" d="M23.5,20l1.9-1.3c0.4-0.3,0.9-0.3,1.3,0l1.9,1.3c0.4,0.3,0.4,0.9,0,1.1l-1.9,1.3c-0.4,0.3-0.9,0.3-1.3,0
		l-1.9-1.3C23.1,20.8,23.1,20.2,23.5,20z"/>
	<path class="st6" d="M20.1,15.3c1.6-1.1,3.7-1.7,5.9-1.7s4.3,0.6,5.9,1.7c1.6,1.1,2.9,2.9,2.9,5.2v2c0,2.3-1.4,4.1-2.9,5.2
		c-1.6,1.1-3.7,1.7-5.9,1.7s-4.3-0.6-5.9-1.7c-1.6-1.1-2.9-2.9-2.9-5.2v-2C17.2,18.2,18.6,16.4,20.1,15.3z M26,15.9
		c-3.7,0-6.7,2.1-6.7,4.6v2c0,2.5,3,4.6,6.7,4.6s6.7-2.1,6.7-4.6v-2C32.7,18,29.7,15.9,26,15.9z"/>
</g>
<text transform="matrix(1 0 0 1 71.8223 49.7516)" class="st12 st13 st14">PancakeSwap</text>
</svg>
