<?xml version="1.0" encoding="utf-8"?>
<!-- Generator: Adobe Illustrator 23.0.1, SVG Export Plug-In . SVG Version: 6.00 Build 0)  -->
<svg version="1.1" id="layer" xmlns="http://www.w3.org/2000/svg" xmlns:xlink="http://www.w3.org/1999/xlink" x="0px" y="0px"
	 viewBox="0 0 884 207" style="enable-background:new 0 0 884 207;" xml:space="preserve">
<style type="text/css">
	.st0{fill:#FABF2C;}
	.st1{fill:#FFFFFF;}
</style>
<g id="Page-1">
	<g id="CT-logo-BlackYellow-tag">
		<g id="Atoms_x2F_Icons_x2F_logos_x2F_CT-GY-icon">
			<g id="Group">
				<path id="Shape" class="st0" d="M128.3,150.6l-36.8,16.1V165c-7.1,1.8-15,2.8-22.4,3.2C34.3,168,6.9,149.7,6.5,128.2v-8
					c11.3,16.5,34.6,27.7,62.6,27.3c9.4,0.4,19.2-1,27.3-3.2l3.2-8c-9.6,2.9-20.2,4.9-30.5,4.9c-34.8,0-62.2-18.1-62.6-40.1v-6.5
					c11.3,15.3,34.6,26.4,62.6,25.6c12.7,0.7,24.9-1.9,35.4-6.5l1.6-8c-10.2,5.3-23.3,8.4-36.8,8C34.5,114.2,7.1,96.1,6.6,73.7v-6.5
					C18,82.8,41.3,94,69.2,94.4c15.9-0.4,30.9-4.7,43.3-11.2l1.6-9.6C103,81.9,86.6,87.4,69.2,88.1c-34.8-0.7-62.2-19-62.6-41.7
					C6.9,24.8,34.5,6.6,69.2,6.3c20.6,0.3,39.9,7.5,51.3,19.3l1.2,1.9h8.1l-1.2-1.9C117.3,10.2,94.4,0,69.2,0
					C30.6-0.1,0,20.9,0,46.3v1.6v81.8c1.3,24.8,31.2,44.9,69,44.9C93.9,174.7,116.4,164.9,128.3,150.6z"/>
				<path id="Shape_1_" class="st0" d="M113.3,207l13-55.1L89,168.1l22.7-95.5H68.1l11.3-47h139.2l-11.3,47h-45.4l-9.7,25.9
					l50.2-21.1L113.3,207z M136,140.7l-6.5,32.4L183,92.2l-43.8,19.4l19.4-45.4h43.8l8.1-34H84.1l-8.1,34h43.8l-21.1,90.6L136,140.7
					z"/>
			</g>
		</g>
		<path id="Shape_2_" class="st1" d="M311,57.2v0.1c0.1,5.2-1.5,9.1-4.7,12.1c-3.2,2.9-7.7,4.4-13.4,4.4s-10.5-1.9-14-5.6
			s-5.3-8.5-5.3-14.4v-9.6c0-5.9,1.8-10.8,5.2-14.4c3.5-3.7,8.1-5.6,13.7-5.6c5.9,0,10.5,1.5,13.8,4.3c3.4,2.9,5,6.9,4.9,12.1v0.1
			h-9.4c0-3.1-0.7-5.5-2.2-6.9c-1.5-1.5-3.8-2.2-6.9-2.2c-2.9,0-5.2,1.2-6.8,3.5c-1.6,2.4-2.5,5.3-2.5,9v9.7c0,3.7,0.9,6.8,2.5,9.1
			c1.8,2.4,4.1,3.5,7.2,3.5c2.9,0,5-0.7,6.5-2.2c1.5-1.5,2.2-3.8,2.2-6.9h9.3V57.2z M364.4,53.3c0,5.9-1.9,10.9-5.6,14.7
			c-3.7,3.8-8.5,5.7-14.6,5.7s-10.8-1.9-14.6-5.7c-3.7-3.8-5.6-8.8-5.6-14.7v-8.7c0-5.9,1.9-10.8,5.6-14.7c3.7-3.8,8.5-5.9,14.4-5.9
			c6,0,10.9,1.9,14.6,5.9c3.8,3.8,5.6,8.8,5.6,14.7v8.7H364.4z M354.6,44.5c0-3.8-0.9-6.8-2.8-9.3c-1.9-2.4-4.4-3.7-7.8-3.7
			c-3.2,0-5.9,1.2-7.7,3.7c-1.8,2.4-2.8,5.5-2.8,9.3v8.7c0,3.8,0.9,6.9,2.8,9.4c1.8,2.4,4.4,3.7,7.7,3.7c3.4,0,5.9-1.2,7.8-3.7
			c1.9-2.4,2.8-5.6,2.8-9.4V44.5z M389.4,73.1h-9.7V24.8h9.7V73.1z M445.2,73.1h-9.7l-19.4-32.6h-0.1v32.6h-9.7V24.8h9.7l19.4,32.6
			h0.1V24.8h9.7V73.1z M494,32.3h-13.8v40.8h-9.7V32.3h-13.6v-7.5H494V32.3z M534.1,51.9h-18v13.8h21.4v7.4h-30.9V24.8h30.9v7.5
			h-21.2v12.1h18v7.5H534.1z M561,65.7h21.7v7.4h-31.4V24.8h9.7L561,65.7L561,65.7z M624,51.9h-18v13.8h21.4v7.4h-30.9V24.8h30.9
			v7.5h-21.2v12.1h18v7.5H624z M678.3,66.6c-1.5,1.9-3.7,3.7-6.8,5.2c-2.9,1.5-6.8,2.2-11.5,2.2c-5.9,0-10.6-1.8-14.3-5.5
			c-3.7-3.7-5.6-8.4-5.6-14.3V44.1c0-5.9,1.8-10.6,5.5-14.3c3.5-3.7,8.3-5.6,13.8-5.6c5.9,0,10.5,1.5,13.6,4.3
			c3.1,2.8,4.7,6.5,4.6,11.2v0.1h-9.1c0-2.5-0.7-4.6-2.2-6c-1.5-1.5-3.7-2.2-6.5-2.2c-2.9,0-5.3,1.2-7.2,3.4
			c-1.8,2.4-2.7,5.3-2.7,8.8v10.2c0,3.7,0.9,6.6,2.8,9c1.9,2.4,4.4,3.4,7.5,3.4c2.4,0,4.1-0.3,5.5-0.7c1.3-0.4,2.4-1,3.1-1.8v-9.4
			h-9.3v-6.8h19v19H678.3z M703.4,53.8v19.3h-9.7V24.8h16.8c5.5,0,9.9,1.3,13,3.8c3.1,2.5,4.7,6,4.7,10.5c0,2.5-0.6,4.6-1.9,6.5
			c-1.3,1.8-3.2,3.2-5.7,4.4c2.8,0.9,4.9,2.2,6.2,4.3c1.2,1.9,1.9,4.4,1.9,7.4v3.5c0,1.3,0.1,2.8,0.6,4.3c0.3,1.5,1,2.5,1.9,3.2v0.7
			h-10c-0.9-0.7-1.5-1.9-1.8-3.5c-0.3-1.6-0.4-3.2-0.4-4.7v-3.4c0-2.4-0.6-4.3-1.9-5.6c-1.3-1.3-3.2-2.1-5.6-2.1h-8V53.8z
			 M703.4,46.4h6.9c2.7,0,4.7-0.6,6-1.8c1.3-1.2,2.1-2.8,2.1-5.2c0-2.2-0.7-4-2.1-5.3c-1.3-1.3-3.2-1.9-5.9-1.9h-7.1L703.4,46.4
			L703.4,46.4z M769.2,62.8h-15.6l-3.2,10.5h-10.2l16.4-48.3h9.9l16.2,48.3h-10.2L769.2,62.8z M756,55.1h10.9L761.6,38h-0.1
			L756,55.1z M804.1,55.5v17.5h-9.7V24.8H813c5.6,0,9.9,1.5,13.1,4.3s4.7,6.6,4.7,11.2s-1.6,8.4-4.7,11.2c-3.2,2.8-7.5,4.3-13.1,4.3
			h-8.8V55.5z M804.1,48.2h8.8c2.7,0,4.7-0.7,6.2-2.2c1.3-1.5,2.1-3.4,2.1-5.6c0-2.4-0.7-4.3-2.1-5.7c-1.3-1.5-3.4-2.2-6.2-2.2h-8.8
			V48.2z M884,73.1h-9.7V53h-19.7v20h-9.7V24.8h9.7v20.8h19.7V24.8h9.7V73.1z"/>
		<g id="Tag_x2F_The-future-of-money-_x2014_-dark-grey" transform="translate(169.000000, 69.000000)">
			<path id="The-future-of-money" class="st1" d="M122.3,83h-6V51.2h-10.9v-5.2h27.8v5.2h-10.9C122.3,51.2,122.3,83,122.3,83z
				 M162.8,83h-6V65.8c0-2.2-0.4-3.8-1.3-4.9c-0.9-1-2.2-1.6-4.1-1.6c-2.5,0-4.3,0.7-5.5,2.2c-1.2,1.5-1.8,4-1.8,7.5v13.8h-5.9V43.6
				h5.9v10c0,1.6-0.1,3.2-0.3,5.2h0.4c0.7-1.3,1.9-2.4,3.4-3.1c1.5-0.7,3.1-1.2,5-1.2c6.8,0,10.2,3.4,10.2,10.3V83z M183.3,83.5
				c-4.4,0-7.8-1.3-10.2-3.8c-2.5-2.5-3.7-6-3.7-10.5c0-4.6,1.2-8.1,3.4-10.8c2.2-2.7,5.5-4,9.4-4c3.7,0,6.6,1.2,8.7,3.4
				c2.2,2.2,3.2,5.3,3.2,9.3v3.2h-18.7c0.1,2.7,0.9,4.9,2.2,6.2c1.3,1.5,3.4,2.2,5.9,2.2c1.6,0,3.2-0.1,4.6-0.4
				c1.5-0.3,2.9-0.9,4.6-1.6v4.9c-1.5,0.7-2.9,1.2-4.4,1.5C187,83.3,185.2,83.5,183.3,83.5z M182.2,59c-1.9,0-3.4,0.6-4.6,1.8
				c-1.2,1.2-1.8,2.9-2.1,5.3h12.7c0-2.4-0.6-4.1-1.6-5.3C185.6,59.6,184.2,59,182.2,59z M228.4,59.5h-6.8V83h-6V59.5H211v-2.8
				l4.6-1.8v-1.8c0-3.2,0.7-5.7,2.4-7.4c1.6-1.6,4-2.4,7.1-2.4c2.1,0,4.1,0.3,6.2,1l-1.6,4.6c-1.5-0.4-2.8-0.7-4.3-0.7
				c-1.3,0-2.4,0.4-2.9,1.2c-0.6,0.9-0.9,2.1-0.9,3.7v1.8h6.8v4.6H228.4z M253,83l-0.9-3.7h-0.3c-0.9,1.3-2.1,2.4-3.5,3.1
				c-1.5,0.7-3.2,1.2-5.2,1.2c-3.4,0-5.9-0.9-7.7-2.5c-1.8-1.6-2.5-4.3-2.5-7.7V55.1h6v17.2c0,2.2,0.4,3.7,1.3,4.9
				c0.9,1,2.2,1.6,4.1,1.6c2.5,0,4.3-0.7,5.5-2.2c1.2-1.5,1.8-4,1.8-7.5v-14h6v28H253z M276.5,78.6c1.5,0,2.9-0.3,4.4-0.7v4.4
				c-0.6,0.3-1.5,0.6-2.5,0.7c-1,0.1-2.1,0.3-3.2,0.3c-5.6,0-8.4-2.9-8.4-8.8v-15H263v-2.7l4.1-2.2l2.1-5.9h3.7v6.2h8v4.6h-8v15
				c0,1.5,0.3,2.5,1,3.2C274.3,78.3,275.4,78.6,276.5,78.6z M306.1,83l-0.9-3.7H305c-0.9,1.3-2.1,2.4-3.5,3.1
				c-1.5,0.7-3.2,1.2-5.2,1.2c-3.4,0-5.9-0.9-7.7-2.5c-1.6-1.6-2.5-4.3-2.5-7.7V55.1h6v17.2c0,2.2,0.4,3.7,1.3,4.9
				c0.9,1,2.2,1.6,4.1,1.6c2.5,0,4.3-0.7,5.5-2.2c1.2-1.5,1.8-4,1.8-7.5v-14h6v28H306.1z M333.6,54.5c1.2,0,2.2,0.1,2.9,0.3
				l-0.6,5.6c-0.9-0.1-1.8-0.3-2.7-0.3c-2.4,0-4.3,0.7-5.7,2.4c-1.5,1.6-2.2,3.5-2.2,6V83h-5.9v-28h4.7l0.7,4.9h0.3
				c0.9-1.6,2.2-2.9,3.7-4C330.2,55.1,331.8,54.5,333.6,54.5z M352.9,83.5c-4.4,0-7.8-1.3-10.2-3.8c-2.5-2.5-3.7-6-3.7-10.5
				c0-4.6,1.2-8.1,3.4-10.8s5.5-4,9.4-4c3.7,0,6.6,1.2,8.7,3.4c2.2,2.2,3.2,5.3,3.2,9.3v3.2H345c0.1,2.7,0.9,4.9,2.2,6.2
				c1.3,1.5,3.4,2.2,5.9,2.2c1.6,0,3.2-0.1,4.6-0.4c1.5-0.3,2.9-0.9,4.6-1.6v4.9c-1.5,0.7-2.9,1.2-4.4,1.5
				C356.4,83.3,354.8,83.5,352.9,83.5z M351.8,59c-1.9,0-3.4,0.6-4.6,1.8c-1.2,1.2-1.8,2.9-2.1,5.3h12.7c0-2.4-0.6-4.1-1.6-5.3
				C355.1,59.6,353.6,59,351.8,59z M408.7,68.9c0,4.6-1.2,8.1-3.5,10.8c-2.4,2.5-5.6,3.8-9.7,3.8c-2.7,0-4.9-0.6-6.9-1.8
				s-3.5-2.9-4.6-5.2c-1-2.2-1.6-4.7-1.6-7.7c0-4.6,1.2-8.1,3.5-10.6c2.4-2.5,5.6-3.8,9.9-3.8c4,0,7.2,1.3,9.6,4
				C407.7,61.1,408.7,64.5,408.7,68.9z M388.4,68.9c0,6.5,2.4,9.7,7.2,9.7c4.7,0,7.1-3.2,7.1-9.7c0-6.3-2.4-9.6-7.1-9.6
				c-2.5,0-4.3,0.9-5.5,2.5C389,63.5,388.4,65.8,388.4,68.9z M429.6,59.5h-6.8V83h-6V59.5h-4.6v-2.8l4.6-1.8v-1.8
				c0-3.2,0.7-5.7,2.4-7.4c1.6-1.6,4-2.4,7.1-2.4c2.1,0,4.1,0.3,6.2,1l-1.6,4.6c-1.5-0.4-2.8-0.7-4.3-0.7c-1.3,0-2.4,0.4-2.9,1.2
				c-0.6,0.7-0.9,2.1-0.9,3.7v1.8h6.8v4.6H429.6z M471.5,83h-6V65.8c0-2.2-0.4-3.7-1.2-4.9c-0.7-1-2.1-1.6-3.8-1.6
				c-2.4,0-4,0.7-5,2.2c-1,1.5-1.6,4-1.6,7.5v14h-5.9v-28h4.7l0.9,3.7h0.3c0.7-1.3,1.9-2.4,3.4-3.1s3.1-1,4.9-1
				c4.3,0,7.2,1.5,8.5,4.4h0.4c0.9-1.3,2.1-2.5,3.5-3.2c1.5-0.7,3.2-1.2,5.2-1.2c3.4,0,5.7,0.9,7.4,2.5c1.5,1.6,2.4,4.3,2.4,7.7V83
				h-5.9V65.8c0-2.2-0.4-3.7-1.2-4.9c-0.9-1-2.1-1.6-3.8-1.6c-2.4,0-4,0.7-5,2.2c-1,1.5-1.6,3.7-1.6,6.6V83H471.5z M522.1,68.9
				c0,4.6-1.2,8.1-3.5,10.8c-2.4,2.5-5.6,3.8-9.7,3.8c-2.7,0-4.9-0.6-6.9-1.8c-2.1-1.2-3.5-2.9-4.6-5.2c-1-2.2-1.6-4.7-1.6-7.7
				c0-4.6,1.2-8.1,3.5-10.6c2.4-2.5,5.6-3.8,9.9-3.8c4,0,7.2,1.3,9.6,4C521,61.1,522.1,64.5,522.1,68.9z M501.8,68.9
				c0,6.5,2.4,9.7,7.2,9.7c4.7,0,7.1-3.2,7.1-9.7c0-6.3-2.4-9.6-7.1-9.6c-2.5,0-4.3,0.9-5.5,2.5C502.4,63.5,501.8,65.8,501.8,68.9z
				 M553.7,83h-6V65.8c0-2.2-0.4-3.8-1.3-4.9c-0.9-1-2.2-1.6-4.1-1.6c-2.5,0-4.4,0.7-5.5,2.2c-1,1.5-1.8,4-1.8,7.5v14h-5.9v-28h4.7
				l0.9,3.7h0.3c0.9-1.3,2.1-2.4,3.5-3.1s3.2-1,5.2-1c6.8,0,10,3.4,10,10.3V83z M574.1,83.5c-4.4,0-7.8-1.3-10.2-3.8
				c-2.5-2.5-3.7-6-3.7-10.5c0-4.6,1.2-8.1,3.4-10.8c2.2-2.7,5.5-4,9.4-4c3.7,0,6.6,1.2,8.7,3.4c2.2,2.2,3.2,5.3,3.2,9.3v3.2h-18.7
				c0.1,2.7,0.9,4.9,2.2,6.2c1.3,1.5,3.4,2.2,5.9,2.2c1.6,0,3.2-0.1,4.6-0.4s2.9-0.9,4.6-1.6v4.9c-1.5,0.7-2.9,1.2-4.4,1.5
				C577.7,83.3,576.1,83.5,574.1,83.5z M573,59c-1.9,0-3.4,0.6-4.6,1.8c-1.2,1.2-1.8,2.9-2.1,5.3H579c0-2.4-0.6-4.1-1.6-5.3
				C576.4,59.6,574.9,59,573,59z M586.5,55.1h6.5l5.7,15.9c0.9,2.2,1.5,4.4,1.8,6.3h0.1c0.1-0.9,0.4-2.1,0.9-3.4
				c0.4-1.3,2.5-7.7,6.5-18.9h6.5l-11.9,31.7c-2.2,5.7-5.7,8.7-10.9,8.7c-1.3,0-2.7-0.1-3.8-0.4v-4.7c0.9,0.1,1.9,0.3,3.1,0.3
				c2.8,0,4.9-1.6,6-5l1-2.7L586.5,55.1z"/>
		</g>
	</g>
</g>
</svg>
