<svg width="148" height="33" viewBox="0 0 148 33" fill="none" xmlns="http://www.w3.org/2000/svg">
<g clip-path="url(#clip0)">
<path d="M57.9009 10.5119C58.8089 11.0689 59.5772 11.8347 60.0661 12.879C60.6249 13.9233 60.9042 15.1765 60.9042 16.5689C60.9042 17.9613 60.6249 19.1448 59.9963 20.1892C59.4375 21.2335 58.5994 21.9993 57.5517 22.4866C56.5041 23.0436 55.2469 23.3221 53.9198 23.3221C53.1515 23.3221 52.4531 23.1828 51.7546 22.9043C51.0562 22.6955 50.4276 22.2778 49.9387 21.7904V29.0309H45.8877V9.95497H49.3799L49.7292 11.4866C51.2657 10.2335 52.942 9.60687 54.6881 9.60687C55.8755 9.60687 56.993 9.88535 57.9009 10.5119ZM55.6659 19.1448C56.3644 18.5183 56.7136 17.6828 56.7136 16.6385C56.7136 15.5942 56.3644 14.7588 55.7358 14.0626C55.1072 13.3664 54.269 13.0879 53.3611 13.0879C52.5928 13.0879 51.8943 13.2271 51.3356 13.5752C50.7768 13.8537 50.3578 14.3411 50.0085 14.9676V18.1005C50.2181 18.7271 50.6371 19.2145 51.126 19.5626C51.6848 19.9107 52.3134 20.1195 53.0817 20.1195C54.1293 20.1195 54.9675 19.7714 55.6659 19.1448Z" fill="black"/>
<path d="M63.2789 12.9471C63.9075 11.9724 64.7457 11.137 65.8632 10.58C66.9807 10.023 68.2379 9.67493 69.6348 9.67493C71.0317 9.67493 72.2889 9.95341 73.4064 10.58C74.454 11.137 75.2922 11.9724 75.9208 13.0167C76.5493 14.061 76.8287 15.1749 76.8287 16.4977C76.8287 17.8205 76.5493 18.9344 75.9208 19.9787C75.2922 21.023 74.5239 21.8585 73.4064 22.4154C72.3587 22.9724 71.0317 23.3205 69.6348 23.3205C68.2379 23.3205 66.9807 23.042 65.8632 22.4851C64.7457 21.9281 63.9075 21.1623 63.2789 20.118C62.7202 19.0737 62.371 17.8901 62.371 16.4977C62.371 15.1749 62.7202 13.9914 63.2789 12.9471ZM67.3998 19.004C67.9585 19.7002 68.7268 19.9787 69.6348 19.9787C70.5427 19.9787 71.311 19.6306 71.8698 19.004C72.4285 18.3775 72.7079 17.4724 72.7079 16.4977C72.7079 15.4534 72.4285 14.618 71.8698 13.9914C71.2412 13.2952 70.5427 12.9471 69.5649 12.9471C68.657 12.9471 67.9585 13.2952 67.3299 13.9218C66.7712 14.618 66.4918 15.4534 66.4918 16.4977C66.4918 17.4724 66.7712 18.3078 67.3998 19.004Z" fill="black"/>
<path d="M83.3941 0.0681152V22.9732H79.3431V0.0681152H83.3941Z" fill="black"/>
<path d="M100.017 10.3021L91.7754 29.0995H87.8641L90.9373 22.3464L85.0704 10.3021H89.6801L93.0326 17.821L96.3851 10.3021H100.017Z" fill="black"/>
<path d="M115.522 10.3015V22.9724C115.522 24.1559 115.173 25.2699 114.475 26.2445C113.776 27.2192 112.868 27.9851 111.681 28.542C110.494 29.099 109.237 29.3775 107.84 29.3775C106.792 29.3775 105.884 29.2382 105.116 29.0294C104.347 28.7509 103.719 28.4724 103.23 28.1939C102.671 27.8458 102.112 27.4281 101.484 26.8711L103.858 24.0863C104.417 24.6433 105.046 25.061 105.605 25.3395C106.163 25.618 106.932 25.8268 107.77 25.8268C108.817 25.8268 109.656 25.5483 110.354 25.061C111.052 24.5737 111.402 23.8078 111.402 22.9028V21.0926C110.983 21.7192 110.424 22.2762 109.586 22.6939C108.748 23.1116 107.77 23.3205 106.652 23.3205C105.535 23.3205 104.417 23.042 103.439 22.4154C102.462 21.8585 101.693 21.023 101.065 19.9787C100.506 18.9344 100.157 17.8205 100.157 16.5673C100.157 15.3142 100.436 14.1306 101.065 13.0863C101.693 12.042 102.462 11.2066 103.509 10.58C104.487 9.95341 105.535 9.67493 106.652 9.67493C107.7 9.67493 108.608 9.81417 109.446 10.0926C110.284 10.3711 110.913 10.7889 111.332 11.2762L111.751 10.3015H115.522ZM111.402 18.099V14.9661C111.122 14.3395 110.703 13.8521 110.075 13.504C109.446 13.1559 108.748 12.9471 107.909 12.9471C106.932 12.9471 106.094 13.2952 105.395 13.9218C104.697 14.5483 104.347 15.3838 104.347 16.4281C104.347 17.4028 104.697 18.3078 105.395 19.004C106.094 19.7002 106.932 20.0483 107.909 20.0483C109.516 19.9787 110.703 19.3521 111.402 18.099Z" fill="black"/>
<path d="M118.875 12.9486C119.504 11.9043 120.342 11.1385 121.459 10.5119C122.577 9.95497 123.834 9.60687 125.231 9.60687C126.628 9.60687 127.885 9.88535 129.002 10.5119C130.05 11.0689 130.888 11.9043 131.517 12.9486C132.076 13.9929 132.425 15.1069 132.425 16.4297C132.425 17.7524 132.145 18.8664 131.517 19.9107C130.958 20.955 130.12 21.7904 129.002 22.3474C127.955 22.9043 126.628 23.2524 125.231 23.2524C123.834 23.2524 122.577 22.974 121.459 22.417C120.342 21.86 119.504 21.0942 118.875 20.0499C118.246 19.0056 117.967 17.8221 117.967 16.36C117.967 15.1765 118.246 13.9929 118.875 12.9486ZM122.926 19.0056C123.485 19.7018 124.253 19.9803 125.161 19.9803C126.069 19.9803 126.837 19.6322 127.396 19.0056C127.955 18.379 128.234 17.474 128.234 16.4993C128.234 15.455 127.955 14.6195 127.396 13.9929C126.837 13.3664 126.069 13.0183 125.161 13.0183C124.253 13.0183 123.555 13.3664 122.926 13.9929C122.297 14.6195 122.018 15.5246 122.018 16.4993C122.088 17.474 122.367 18.3094 122.926 19.0056Z" fill="black"/>
<path d="M146.743 10.7192C147.581 11.4154 147.93 12.3205 148 13.4344V22.9724H143.879V14.9661C143.809 13.7129 143.181 13.0863 141.993 13.0863C141.086 13.0863 140.317 13.504 139.758 14.4091C139.2 15.3142 138.92 16.4281 138.92 17.7509V22.9724H134.869V10.3015H138.571L138.85 12.3205C139.339 11.4851 139.968 10.8585 140.806 10.3711C141.644 9.88379 142.622 9.67493 143.74 9.67493C144.927 9.67493 145.975 10.023 146.743 10.7192Z" fill="black"/>
<path d="M28.5663 10.0942C27.8679 9.67646 26.9599 9.67646 26.1916 10.0942L20.7437 13.2967L17.042 15.3853L11.5941 18.5879C10.8957 19.0056 9.98773 19.0056 9.21944 18.5879L4.8891 16.0815C4.19066 15.6638 3.70175 14.898 3.70175 14.0625V9.1195C3.70175 8.28406 4.12081 7.51824 4.8891 7.10051L9.1496 4.66381C9.84804 4.24608 10.756 4.24608 11.5243 4.66381L15.7848 7.10051C16.4832 7.51824 16.9722 8.28406 16.9722 9.1195V12.322L20.6739 10.1638V6.96127C20.6739 6.12583 20.2548 5.36001 19.4865 4.94229L11.5941 0.347349C10.8957 -0.0703728 9.98773 -0.0703728 9.21944 0.347349L1.18735 4.94229C0.419066 5.36001 0 6.12583 0 6.96127V16.2208C0 17.0562 0.419066 17.822 1.18735 18.2398L9.21944 22.8347C9.91789 23.2524 10.8259 23.2524 11.5941 22.8347L17.042 19.7018L20.7437 17.5436L26.1916 14.4106C26.89 13.9929 27.798 13.9929 28.5663 14.4106L32.8268 16.8474C33.5252 17.2651 34.0142 18.0309 34.0142 18.8663V23.8094C34.0142 24.6448 33.5951 25.4106 32.8268 25.8284L28.5663 28.3347C27.8679 28.7524 26.9599 28.7524 26.1916 28.3347L21.9311 25.898C21.2327 25.4803 20.7437 24.7144 20.7437 23.879V20.6765L17.042 22.8347V26.0372C17.042 26.8727 17.4611 27.6385 18.2294 28.0562L26.2614 32.6512C26.9599 33.0689 27.8679 33.0689 28.6361 32.6512L36.6682 28.0562C37.3667 27.6385 37.8556 26.8727 37.8556 26.0372V16.7777C37.8556 15.9423 37.4365 15.1765 36.6682 14.7587L28.5663 10.0942Z" fill="black"/>
</g>
<defs>
<clipPath id="clip0">
<rect width="148" height="33" fill="white"/>
</clipPath>
</defs>
</svg>
