<?xml version="1.0" encoding="utf-8"?>
<!-- Generator: Adobe Illustrator 16.0.0, SVG Export Plug-In . SVG Version: 6.00 Build 0)  -->
<!DOCTYPE svg PUBLIC "-//W3C//DTD SVG 1.1//EN" "http://www.w3.org/Graphics/SVG/1.1/DTD/svg11.dtd">
<svg version="1.1" id="Layer_1" xmlns="http://www.w3.org/2000/svg" xmlns:xlink="http://www.w3.org/1999/xlink" x="0px" y="0px"
	 width="3000px" height="3000px" viewBox="0 0 3000 3000" enable-background="new 0 0 3000 3000" xml:space="preserve">
<rect x="-68.325" y="-68.325" fill-rule="evenodd" clip-rule="evenodd" width="3125.375" height="3167.367"/>
<path d="M-3617.106,1128.649h-4.416C-3619.696,1128.844-3618.252,1128.828-3617.106,1128.649z"/>
<path d="M-4193.302,2542.329c-0.497,2.156-0.495,3.563-0.144,4.459C-4193.06,2545.851-4192.972,2544.428-4193.302,2542.329z"/>
<path d="M-4119.683,1321.221c-0.241,2.451-0.483,4.901-0.761,7.724h-14.897c0.005,0.63,0.009,1.258,0.014,1.887h18.077
	c-0.226-4.439-0.356-6.992-0.486-9.531C-4118.385,1321.274-4119.034,1321.247-4119.683,1321.221z"/>
<path d="M-4532.873,2878.022c0.491-0.884,0.458-2.138,0.684-3.209C-4532.679,2876.109-4532.883,2877.158-4532.873,2878.022z"/>
<path d="M-4168.124,2638.153c-0.129,1.198-0.26,2.397-0.387,3.596c0.009-0.001,0.017-0.001,0.026-0.002
	C-4168.062,2640.225-4167.963,2639.055-4168.124,2638.153z"/>
<path d="M-4358.809,2570.88v-3.423C-4358.94,2568.403-4358.951,2569.53-4358.809,2570.88z"/>
<path d="M-4280.45,1355.958h3.241C-4278.492,1355.776-4279.547,1355.798-4280.45,1355.958z"/>
<path fill-rule="evenodd" clip-rule="evenodd" fill="none" d="M-1930.433,2004.669c8.297,0.562,21.927-1.473,22.071,12.511
	c0.153,14.896-13.805,13.204-24.273,13.362c-17.746,0.268-20.034-1.71-19.026-15.165
	C-1950.898,2005.19-1949.783,2004.578-1930.433,2004.669z"/>
<text transform="matrix(1 0 0 1 1133.2622 1705.3477)" fill="#00AEEF" font-family="'BaronNeue'" font-size="466.1964">DxSale</text>
<text transform="matrix(1 0 0 1 1243.6079 1805.9834)" fill="#FFFFFF" font-family="'NexaBold'" font-size="52.5469" letter-spacing="15">TOKEN SALES WITH PEACE OF MIND</text>
<g>
	<g>
		<g>
			<path fill="#00AEEF" d="M941.354,1141.338c8.763-8.767,8.763-22.978,0-31.744c-8.767-8.763-22.978-8.763-31.745,0
				c-8.767,8.766-8.767,22.977,0,31.744C918.377,1150.101,932.587,1150.101,941.354,1141.338z"/>
			<path fill="#00AEEF" d="M991.246,1143.385l-88.243,88.247c-8.767,8.763-8.767,22.978,0,31.744c8.763,8.763,22.978,8.763,31.74,0
				l88.247-88.247c8.767-8.767,8.767-22.978,0-31.744C1014.223,1134.622,1000.012,1134.622,991.246,1143.385z"/>
			<circle fill="#00AEEF" cx="878.474" cy="1287.902" r="22.445"/>
			<path fill="#00AEEF" d="M1064.957,1101.418c-8.767-8.767-22.978-8.767-31.741,0c-8.767,8.767-8.767,22.978,0,31.744
				c8.763,8.763,22.974,8.763,31.741,0C1073.723,1124.396,1073.723,1110.185,1064.957,1101.418z"/>
			<circle fill="#00AEEF" cx="998.585" cy="1288.028" r="22.444"/>
			<path fill="#00AEEF" d="M935.521,1314.54l-12.86,12.86c-22.645,22.644-59.04,22.004-81.751-0.569
				c-0.285-0.276-0.565-0.558-0.846-0.834c-23.011-22.685-23.939-59.429-1.093-82.279l59.643-59.639
				c8.594-8.594,9.859-22.734,1.729-31.766c-8.677-9.631-23.528-9.923-32.575-0.875l-3.233,3.233
				c-58.968,58.968-140.065,88.588-223.426,86.103c-8.041-0.236-16.164-0.154-24.354,0.265
				c-146.65,7.521-267.311,124.137-279.442,270.477c-2.17,26.151-0.905,51.647,3.368,76.105
				c8.883,50.811-7.061,102.776-43.534,139.251l0,0c-7.857,7.855-9.893,20.462-3.495,29.551c8.28,11.756,24.643,12.784,34.341,3.088
				l13.754-13.755c22.21-22.211,58.651-22.305,80.974-0.212l1.623,1.614c23.045,22.811,23.143,60.229,0.214,83.154l-58.759,58.763
				c-8.595,8.596-9.863,22.73-1.732,31.763c8.677,9.636,23.528,9.927,32.575,0.876l5.624-5.621
				c57.449-57.447,136.473-87.176,217.648-83.834c9.145,0.378,18.398,0.336,27.741-0.144
				c146.647-7.52,267.315-124.141,279.446-270.479c2.129-25.701,0.947-50.771-3.154-74.849c-8.793-51.634,7.18-104.366,44.219-141.4
				l0,0c9.047-9.047,8.755-23.901-0.879-32.575C958.251,1304.681,944.116,1305.948,935.521,1314.54z"/>
			<circle fill="#00AEEF" cx="338.927" cy="1947.686" r="22.444"/>
			<path fill="#00AEEF" d="M361.405,1809.777c-8.763-8.763-22.978-8.763-31.74,0l-88.247,88.247c-8.763,8.763-8.763,22.977,0,31.741
				c8.767,8.767,22.978,8.767,31.744,0l88.243-88.243C370.171,1832.756,370.171,1818.544,361.405,1809.777z"/>
			<path fill="#00AEEF" d="M401.808,1801.12c8.762-8.762,8.762-22.977,0-31.741c-8.767-8.766-22.978-8.766-31.745,0
				c-8.763,8.765-8.763,22.979,0,31.741C378.83,1809.887,393.041,1809.887,401.808,1801.12z"/>
			<path fill="#00AEEF" d="M199.451,1939.992c-8.766,8.767-8.766,22.977,0,31.745c8.767,8.762,22.978,8.762,31.745,0
				c8.763-8.769,8.763-22.979,0-31.745C222.428,1931.224,208.218,1931.224,199.451,1939.992z"/>
			<path fill="#00AEEF" d="M281.693,1800.996c8.766-8.767,8.766-22.977,0-31.745c-8.763-8.762-22.978-8.762-31.741,0
				c-8.767,8.769-8.767,22.979,0,31.745C258.715,1809.763,272.93,1809.763,281.693,1800.996z"/>
		</g>
	</g>
	<circle fill="#00AEEF" cx="632.203" cy="1536.577" r="295.935"/>
	<circle fill="#FFFFFF" cx="632.204" cy="1536.577" r="248.547"/>
	<g>
		<path fill="#FFFFFF" d="M640.368,1307.071c98.604,0,183.794,57.423,223.964,140.648
			c-35.766-93.369-126.176-159.689-232.128-159.689c-137.27,0-248.547,111.276-248.547,248.547c0,38.663,8.831,75.26,24.579,107.895
			c-10.57-27.6-16.418-57.531-16.418-88.851C391.817,1418.352,503.098,1307.071,640.368,1307.071z"/>
	</g>
	<g>
		<text transform="matrix(1 0.0011 -0.0011 1 501.1006 1698.6006)" fill="#00AEEF" font-family="'BaronNeue'" font-size="466.1967">S</text>
	</g>
</g>
</svg>
